# xmcd CD database file
#
# Track frame offsets:
#	150
#	17663
#	28195
#	43408
#	59182
#	74469
#	100919
#	114912
#	128937
#	139894
#	155943
#	180607
#	196408
#	207153
#	219632
#	238189
#	258083
#
# Disc length: 3629 seconds
#
# Revision: 0
# Processed by: cddbd v1.4PL0 Copyright (c) Steve Scherf et al.
# Submitted via: CDex 1.50beta10
#
DISCID=0d0e2b11
DTITLE=Gang Olsena - Raycowny Rhythm and Blues
DYEAR=1900
DGENRE=Blues
TTITLE0=Bad Boys
TTITLE1=Gang Olsena
TTITLE2=Jak tu nie wypic
TTITLE3=Power man
TTITLE4=Trasa
TTITLE5=Zaufac Bogu
TTITLE6=Kilka chwil
TTITLE7=Biale myszy, dzikie koty
TTITLE8=Blues o ...
TTITLE9=Rokendrol
TTITLE10=Ostatnie dni
TTITLE11=Stary i towary
TTITLE12=Marsz gwardii ludowej
TTITLE13=Kolysanka o Nowym Jorku
TTITLE14=Martwe neony mojego miasta
TTITLE15=Moj Honky Tonk blues
TTITLE16=Jedziemy Autostopem
EXTD=
EXTT0=
EXTT1=
EXTT2=
EXTT3=
EXTT4=
EXTT5=
EXTT6=
EXTT7=
EXTT8=
EXTT9=
EXTT10=
EXTT11=
EXTT12=
EXTT13=
EXTT14=
EXTT15=
EXTT16=
PLAYORDER=
